<svg width="14" height="14" viewBox="0 0 14 14" fill="none" xmlns="http://www.w3.org/2000/svg">
<path d="M12.0256 14C11.7313 14 11.4872 13.7786 11.4872 13.5116V6.34883C11.4872 6.08185 11.7313 5.86046 12.0256 5.86046C12.32 5.86046 12.5641 6.08185 12.5641 6.34883V13.5116C12.5641 13.7786 12.32 14 12.0256 14Z" fill="#3A0CA3"/>
<path d="M12.0256 4.23256C11.7313 4.23256 11.4872 4.01116 11.4872 3.74419V0.488372C11.4872 0.221395 11.7313 0 12.0256 0C12.32 0 12.5641 0.221395 12.5641 0.488372V3.74419C12.5641 4.01116 12.32 4.23256 12.0256 4.23256Z" fill="#3A0CA3"/>
<path d="M7.00001 14C6.70565 14 6.46155 13.7786 6.46155 13.5116V10.2558C6.46155 9.98882 6.70565 9.76743 7.00001 9.76743C7.29437 9.76743 7.53847 9.98882 7.53847 10.2558V13.5116C7.53847 13.7786 7.29437 14 7.00001 14Z" fill="#3A0CA3"/>
<path d="M7.00001 8.13953C6.70565 8.13953 6.46155 7.91814 6.46155 7.65116V0.488372C6.46155 0.221395 6.70565 0 7.00001 0C7.29437 0 7.53847 0.221395 7.53847 0.488372V7.65116C7.53847 7.91814 7.29437 8.13953 7.00001 8.13953Z" fill="#3A0CA3"/>
<path d="M1.97434 14C1.67999 14 1.43588 13.7786 1.43588 13.5116V6.34883C1.43588 6.08185 1.67999 5.86046 1.97434 5.86046C2.2687 5.86046 2.51281 6.08185 2.51281 6.34883V13.5116C2.51281 13.7786 2.2687 14 1.97434 14Z" fill="#3A0CA3"/>
<path d="M1.97434 4.23256C1.67999 4.23256 1.43588 4.01116 1.43588 3.74419V0.488372C1.43588 0.221395 1.67999 0 1.97434 0C2.2687 0 2.51281 0.221395 2.51281 0.488372V3.74419C2.51281 4.01116 2.2687 4.23256 1.97434 4.23256Z" fill="#3A0CA3"/>
<path d="M3.41026 6.8372H0.538462C0.244103 6.8372 0 6.61581 0 6.34883C0 6.08185 0.244103 5.86046 0.538462 5.86046H3.41026C3.70462 5.86046 3.94872 6.08185 3.94872 6.34883C3.94872 6.61581 3.70462 6.8372 3.41026 6.8372Z" fill="#3A0CA3"/>
<path d="M13.4615 6.8372H10.5897C10.2954 6.8372 10.0513 6.61581 10.0513 6.34883C10.0513 6.08185 10.2954 5.86046 10.5897 5.86046H13.4615C13.7559 5.86046 14 6.08185 14 6.34883C14 6.61581 13.7559 6.8372 13.4615 6.8372Z" fill="#3A0CA3"/>
<path d="M8.43589 8.13952H5.5641C5.26974 8.13952 5.02563 7.91813 5.02563 7.65115C5.02563 7.38418 5.26974 7.16278 5.5641 7.16278H8.43589C8.73025 7.16278 8.97435 7.38418 8.97435 7.65115C8.97435 7.91813 8.73025 8.13952 8.43589 8.13952Z" fill="#3A0CA3"/>
</svg>
